<svg width="32" height="32" viewBox="0 0 32 32" fill="none" xmlns="http://www.w3.org/2000/svg">
<path d="M19 26C18.2089 26 17.4355 25.7654 16.7777 25.3259C16.1199 24.8864 15.6072 24.2616 15.3045 23.5307C15.0017 22.7998 14.9225 21.9956 15.0769 21.2196C15.2312 20.4437 15.6122 19.731 16.1716 19.1716C16.731 18.6122 17.4437 18.2312 18.2196 18.0769C18.9956 17.9225 19.7998 18.0017 20.5307 18.3045C21.2616 18.6072 21.8864 19.1199 22.3259 19.7777C22.7654 20.4355 23 21.2089 23 22C22.9987 23.0605 22.5768 24.0771 21.827 24.827C21.0771 25.5768 20.0605 25.9987 19 26ZM19 20C18.6044 20 18.2178 20.1173 17.8889 20.3371C17.56 20.5568 17.3036 20.8692 17.1522 21.2346C17.0009 21.6001 16.9613 22.0022 17.0384 22.3902C17.1156 22.7781 17.3061 23.1345 17.5858 23.4142C17.8655 23.6939 18.2219 23.8844 18.6098 23.9616C18.9978 24.0387 19.3999 23.9991 19.7654 23.8478C20.1308 23.6964 20.4432 23.44 20.6629 23.1111C20.8827 22.7822 21 22.3956 21 22C20.9995 21.4697 20.7886 20.9613 20.4136 20.5864C20.0387 20.2114 19.5303 20.0005 19 20V20Z" fill="black"/>
<path d="M27 29H11C10.4696 29 9.96086 28.7893 9.58579 28.4142C9.21071 28.0391 9 27.5304 9 27V18C9 17.4696 9.21071 16.9609 9.58579 16.5858C9.96086 16.2107 10.4696 16 11 16H14.28L14.823 14.368C14.9557 13.9696 15.2104 13.6231 15.5511 13.3775C15.8918 13.132 16.3011 12.9999 16.721 13H21.279C21.6989 12.9999 22.1082 13.132 22.4489 13.3775C22.7896 13.6231 23.0443 13.9696 23.177 14.368L23.72 16H27C27.5304 16 28.0391 16.2107 28.4142 16.5858C28.7893 16.9609 29 17.4696 29 18V27C29 27.5304 28.7893 28.0391 28.4142 28.4142C28.0391 28.7893 27.5304 29 27 29ZM11 27H27V18H22.28L21.28 15H16.72L15.72 18H11V27Z" fill="black"/>
<path d="M27 11H29V13H27V11Z" fill="black"/>
<path d="M27 7H29V9H27V7Z" fill="black"/>
<path d="M27 3H29V5H27V3Z" fill="black"/>
<path d="M23 3H25V5H23V3Z" fill="black"/>
<path d="M19 3H21V5H19V3Z" fill="black"/>
<path d="M15 3H17V5H15V3Z" fill="black"/>
<path d="M11 3H13V5H11V3Z" fill="black"/>
<path d="M7 3H9V5H7V3Z" fill="black"/>
<path d="M3 3H5V5H3V3Z" fill="black"/>
<path d="M3 7H5V9H3V7Z" fill="black"/>
<path d="M3 11H5V13H3V11Z" fill="black"/>
<path d="M3 15H5V17H3V15Z" fill="black"/>
<path d="M3 19H5V21H3V19Z" fill="black"/>
<path d="M3 23H5V25H3V23Z" fill="black"/>
<path d="M3 27H5V29H3V27Z" fill="black"/>
</svg>
