<svg width="40" height="41" viewBox="0 0 40 41" fill="none" xmlns="http://www.w3.org/2000/svg">
<path d="M12.565 37.8452C27.66 37.8452 35.9175 25.3377 35.9175 14.5102C35.9175 14.1602 35.9175 13.8052 35.9025 13.4552C37.5101 12.2915 38.8977 10.8506 40 9.20024C38.4983 9.86237 36.9069 10.2988 35.2775 10.4952C36.9938 9.46933 38.2793 7.85516 38.895 5.95274C37.2825 6.90805 35.5175 7.57867 33.6775 7.93524C32.4405 6.6178 30.8035 5.74503 29.0202 5.45213C27.2369 5.15923 25.4068 5.46254 23.8133 6.31508C22.2199 7.16762 20.952 8.52181 20.2061 10.1679C19.4602 11.814 19.2779 13.6601 19.6875 15.4202C16.4244 15.2566 13.232 14.4089 10.3176 12.9321C7.40317 11.4553 4.83171 9.38235 2.77 6.84774C1.72335 8.65545 1.40393 10.7937 1.87662 12.8284C2.3493 14.8631 3.57864 16.6416 5.315 17.8027C4.01385 17.7585 2.7413 17.4091 1.6 16.7827V16.8952C1.60224 18.7889 2.25827 20.6238 3.45718 22.0896C4.6561 23.5555 6.32437 24.5624 8.18 24.9402C7.47566 25.1343 6.74807 25.231 6.0175 25.2277C5.50246 25.2293 4.98845 25.1816 4.4825 25.0852C5.00697 26.7154 6.02818 28.1407 7.40312 29.1614C8.77805 30.1822 10.4378 30.7474 12.15 30.7777C9.24139 33.0622 5.6485 34.3013 1.95 34.2952C1.2983 34.298 0.647058 34.2604 0 34.1827C3.75379 36.5759 8.11324 37.8466 12.565 37.8452V37.8452Z" fill="white"/>
</svg>
