<svg width="40" height="40" viewBox="0 0 40 40" fill="none" xmlns="http://www.w3.org/2000/svg">
<path d="M12.565 37.5C27.66 37.5 35.9175 24.9925 35.9175 14.165C35.9175 13.815 35.9175 13.46 35.9025 13.11C37.5101 11.9462 38.8977 10.5053 40 8.85496C38.4983 9.51709 36.9069 9.95348 35.2775 10.15C36.9938 9.12406 38.2793 7.50988 38.895 5.60746C37.2825 6.56277 35.5175 7.2334 33.6775 7.58996C32.4405 6.27252 30.8035 5.39976 29.0202 5.10686C27.2369 4.81396 25.4068 5.11727 23.8133 5.96981C22.2199 6.82235 20.952 8.17653 20.2061 9.82261C19.4602 11.4687 19.2779 13.3148 19.6875 15.075C16.4244 14.9113 13.232 14.0636 10.3176 12.5868C7.40317 11.11 4.83171 9.03707 2.77 6.50246C1.72335 8.31017 1.40393 10.4485 1.87662 12.4831C2.3493 14.5178 3.57864 16.2963 5.315 17.4575C4.01385 17.4133 2.7413 17.0639 1.6 16.4375V16.55C1.60224 18.4437 2.25827 20.2785 3.45718 21.7444C4.6561 23.2102 6.32437 24.2171 8.18 24.595C7.47566 24.789 6.74807 24.8857 6.0175 24.8825C5.50246 24.884 4.98845 24.8363 4.4825 24.74C5.00697 26.3701 6.02818 27.7954 7.40312 28.8162C8.77805 29.8369 10.4378 30.4021 12.15 30.4325C9.24139 32.717 5.6485 33.956 1.95 33.95C1.2983 33.9527 0.647058 33.9151 0 33.8375C3.75379 36.2306 8.11324 37.5013 12.565 37.5Z" fill="white"/>
</svg>
