<svg width="255" height="68" viewBox="0 0 255 68" fill="none" xmlns="http://www.w3.org/2000/svg">
<path d="M71.7887 38.3498C67.707 62.2732 38.8443 62.03 25.1101 59.1617L2.34143 66.1822L9.70745 51.7295C-0.150291 44.2194 1.44293 31.4579 2.34143 26.2425C8.74763 0.00687545 37.2427 -0.543654 51.6798 3.61692C77.1744 10.9641 71.7887 37.1763 71.7887 38.3498Z" stroke="white" stroke-width="2" stroke-linejoin="round"/>
<path d="M24.5406 36.7883C24.5406 34.9597 24.7637 33.5023 25.2098 32.4162C25.6559 31.3299 26.5347 30.1406 27.846 28.8484C29.1709 27.5422 30.0091 26.6142 30.3605 26.0643C30.9014 25.2255 31.1718 24.3181 31.1718 23.3419C31.1718 22.0495 30.854 21.0666 30.2186 20.3929C29.5967 19.7054 28.6774 19.3618 27.4608 19.3618C26.2981 19.3618 25.3585 19.6986 24.642 20.3722C23.939 21.0323 23.5874 21.9328 23.5874 23.0739H18.6597C18.6868 20.6403 19.498 18.7155 21.0932 17.2995C22.702 15.8834 24.8244 15.1753 27.4608 15.1753C30.1781 15.1753 32.2939 15.8764 33.808 17.2788C35.3357 18.6812 36.0995 20.6403 36.0995 23.1563C36.0995 25.3974 35.072 27.6041 33.017 29.7763L30.5228 32.2718C29.6306 33.3029 29.1709 34.8085 29.1438 36.7883H24.5406ZM24.1958 43.202C24.1958 42.3911 24.446 41.7377 24.9461 41.2427C25.4463 40.734 26.1223 40.4797 26.974 40.4797C27.8392 40.4797 28.5219 40.741 29.0222 41.2634C29.5224 41.7721 29.7725 42.4184 29.7725 43.202C29.7725 43.958 29.5292 44.5906 29.0425 45.0992C28.5557 45.6082 27.8663 45.8624 26.974 45.8624C26.0818 45.8624 25.3922 45.6082 24.9056 45.0992C24.4324 44.5906 24.1958 43.958 24.1958 43.202ZM49.7478 36.7676H45.5096L45.0432 15.5876H50.2346L49.7478 36.7676ZM44.9012 43.2434C44.9012 42.4595 45.1511 41.8134 45.6516 41.3047C46.1517 40.7822 46.8344 40.5211 47.7 40.5211C48.5651 40.5211 49.2478 40.7822 49.7478 41.3047C50.2482 41.8134 50.4983 42.4595 50.4983 43.2434C50.4983 43.9993 50.2549 44.632 49.7682 45.1406C49.2814 45.6491 48.592 45.9038 47.7 45.9038C46.8075 45.9038 46.1181 45.6491 45.6313 45.1406C45.1446 44.632 44.9012 43.9993 44.9012 43.2434Z" fill="white"/>
<path d="M89.4911 22.0472C91.7504 22.0472 93.7771 22.5766 95.5712 23.6352C97.3874 24.6714 98.8052 26.1132 99.8241 27.9603C100.843 29.8073 101.352 31.891 101.352 34.2112C101.352 36.5314 100.843 38.615 99.8241 40.4622C98.8052 42.3092 97.3874 43.7621 95.5712 44.8208C93.7771 45.8569 91.7504 46.3751 89.4911 46.3751C87.5196 46.3751 85.7255 46.0373 84.1087 45.3615C82.5139 44.6857 81.1849 43.7058 80.1217 42.4219L82.8461 39.7188C84.5519 41.5884 86.689 42.5233 89.2585 42.5233C91.252 42.5233 92.9353 41.9038 94.3087 40.6649C95.7041 39.426 96.5567 37.7928 96.8669 35.7654H86.4677V32.2853H96.8006C96.4239 30.3706 95.5492 28.8275 94.1758 27.6562C92.8248 26.4849 91.1855 25.8992 89.2585 25.8992C86.689 25.8992 84.5519 26.834 82.8461 28.7037L80.1217 26.0005C81.1849 24.7166 82.5139 23.7366 84.1087 23.0608C85.7255 22.385 87.5196 22.0472 89.4911 22.0472ZM121.233 27.994V46.0373H117.08V31.5756H110.435L110.269 35.1573C110.158 37.545 109.936 39.5498 109.604 41.1717C109.294 42.7711 108.751 44.0438 107.976 44.9898C107.223 45.9135 106.182 46.3751 104.853 46.3751C104.233 46.3751 103.468 46.2514 102.561 46.0035L102.76 42.4556C103.07 42.5233 103.335 42.557 103.557 42.557C104.399 42.557 105.03 42.2192 105.451 41.5434C105.872 40.845 106.137 40.0229 106.248 39.0767C106.381 38.1082 106.492 36.734 106.581 34.9546L106.88 27.994H121.233ZM145.611 28.8725C147.293 28.8725 148.777 29.2442 150.062 29.9876C151.347 30.7084 152.344 31.7222 153.052 33.0286C153.784 34.3351 154.149 35.8331 154.149 37.5226C154.149 39.257 153.751 40.8 152.952 42.1516C152.155 43.4808 151.037 44.5167 149.597 45.2601C148.158 46.0035 146.518 46.3751 144.68 46.3751C141.601 46.3751 139.22 45.3391 137.537 43.2665C135.853 41.1943 135.011 38.2095 135.011 34.3125C135.011 30.6858 135.776 27.8139 137.304 25.6963C138.832 23.5789 141.169 22.1823 144.314 21.5065L152.554 19.7158L153.152 23.5001L145.676 25.0544C143.528 25.5049 141.922 26.2709 140.859 27.3521C139.796 28.4333 139.175 29.9539 138.998 31.9136C139.796 30.9449 140.759 30.2016 141.889 29.6835C143.019 29.1429 144.259 28.8725 145.611 28.8725ZM144.78 42.9626C146.308 42.9626 147.538 42.467 148.468 41.4758C149.42 40.4622 149.897 39.1781 149.897 37.6238C149.897 36.0695 149.42 34.8193 148.468 33.8733C147.538 32.9272 146.308 32.4541 144.78 32.4541C143.229 32.4541 141.977 32.9272 141.025 33.8733C140.072 34.8193 139.597 36.0695 139.597 37.6238C139.597 39.2007 140.072 40.4846 141.025 41.4758C141.999 42.467 143.251 42.9626 144.78 42.9626ZM174.981 27.994V46.0373H171.027V43.7396C170.362 44.5506 169.532 45.1811 168.535 45.6318C167.56 46.0597 166.496 46.2739 165.346 46.2739C162.976 46.2739 161.104 45.6095 159.73 44.2803C158.357 42.9287 157.67 40.9351 157.67 38.2996V27.994H161.824V37.7253C161.824 39.3471 162.177 40.5635 162.887 41.3744C163.617 42.1629 164.659 42.557 166.009 42.557C167.471 42.557 168.635 42.0952 169.498 41.1717C170.384 40.2256 170.827 38.874 170.827 37.117V27.994H174.981ZM196.67 27.994V46.0373H192.516V31.5756H185.872L185.705 35.1573C185.595 37.545 185.374 39.5498 185.04 41.1717C184.732 42.7711 184.188 44.0438 183.413 44.9898C182.66 45.9135 181.618 46.3751 180.289 46.3751C179.669 46.3751 178.906 46.2514 177.997 46.0035L178.197 42.4556C178.507 42.5233 178.773 42.557 178.994 42.557C179.836 42.557 180.468 42.2192 180.888 41.5434C181.309 40.845 181.575 40.0229 181.685 39.0767C181.818 38.1082 181.93 36.734 182.018 34.9546L182.316 27.994H196.67ZM210.636 42.6922C212.563 42.6922 214.168 42.0389 215.453 40.7324L217.646 43.3342C216.87 44.3026 215.874 45.035 214.657 45.5305C213.438 46.0259 212.064 46.2739 210.536 46.2739C208.587 46.2739 206.87 45.8798 205.387 45.0912C203.902 44.3026 202.75 43.2104 201.931 41.8137C201.133 40.3946 200.734 38.7952 200.734 37.0156C200.734 35.2586 201.123 33.6819 201.898 32.2853C202.695 30.8661 203.78 29.7623 205.153 28.9739C206.549 28.1854 208.122 27.7913 209.871 27.7913C211.533 27.7913 213.04 28.163 214.39 28.9064C215.763 29.6272 216.849 30.6747 217.646 32.0487C218.444 33.4003 218.842 34.9883 218.842 36.8129L205.253 39.516C205.674 40.5522 206.35 41.3407 207.28 41.8812C208.211 42.4219 209.329 42.6922 210.636 42.6922ZM209.871 31.1702C208.344 31.1702 207.102 31.677 206.15 32.6907C205.22 33.7044 204.755 35.0672 204.755 36.7792V36.8129L214.788 34.8532C214.501 33.7494 213.913 32.8596 213.028 32.1838C212.164 31.508 211.113 31.1702 209.871 31.1702ZM245.291 27.7913C247.53 27.7913 249.302 28.4558 250.609 29.7849C251.915 31.0914 252.567 33.0623 252.567 35.6978V46.0373H248.415V36.2385C248.415 34.6618 248.072 33.4792 247.385 32.6907C246.698 31.8797 245.713 31.4743 244.428 31.4743C243.033 31.4743 241.914 31.9473 241.072 32.8935C240.23 33.817 239.81 35.146 239.81 36.8805V46.0373H235.656V36.2385C235.656 34.6618 235.314 33.4792 234.626 32.6907C233.941 31.8797 232.954 31.4743 231.669 31.4743C230.252 31.4743 229.123 31.936 228.28 32.8596C227.462 33.7833 227.052 35.1235 227.052 36.8805V46.0373H222.899V27.994H226.852V30.2917C227.517 29.4808 228.347 28.8612 229.344 28.4333C230.34 28.0053 231.449 27.7913 232.666 27.7913C233.996 27.7913 235.17 28.0503 236.188 28.5684C237.23 29.0641 238.048 29.8073 238.647 30.7985C239.378 29.8525 240.319 29.1204 241.471 28.6023C242.622 28.0616 243.896 27.7913 245.291 27.7913Z" fill="white"/>
</svg>
