<svg width="38" height="52" viewBox="0 0 38 52" fill="none" xmlns="http://www.w3.org/2000/svg">
<path d="M30.875 5.53191C30.875 4.06476 31.2503 2.6577 31.9184 1.62026C32.5865 0.582825 33.4927 0 34.4375 0C35.3823 0 36.2885 0.582825 36.9566 1.62026C37.6247 2.6577 38 4.06476 38 5.53191V46.0993C38 47.5664 37.6247 48.9735 36.9566 50.0109C36.2885 51.0484 35.3823 51.6312 34.4375 51.6312C33.4927 51.6312 32.5865 51.0484 31.9184 50.0109C31.2503 48.9735 30.875 47.5664 30.875 46.0993V45.3101C25.7402 40.7333 20.2113 38.5132 14.459 37.6281L15.4209 47.6298C15.4855 48.1626 15.4736 48.711 15.3861 49.2359C15.2987 49.7608 15.1377 50.2493 14.9148 50.6667C14.6919 51.084 14.4124 51.4198 14.0964 51.6503C13.7803 51.8807 13.4354 52.0001 13.0863 52H11.7847C11.3231 51.9999 10.8715 51.791 10.4851 51.3986C10.0987 51.0063 9.79437 50.4476 9.60925 49.7909L5.2155 36.92C5.05559 36.9159 4.89567 36.9123 4.73575 36.9089C3.47787 36.8895 2.27553 36.1015 1.38915 34.7154C0.502765 33.3294 0.00368563 31.4569 0 29.5035L0 22.1277C0.00423886 20.1741 0.502478 18.3013 1.38739 16.9128C2.2723 15.5242 3.47306 14.7309 4.731 14.7038C6.69756 14.6624 8.66354 14.5702 10.6281 14.4272C17.8553 13.8593 25.2296 11.2962 30.875 6.31745V5.53191ZM33.25 5.53191V46.0993C33.25 46.5883 33.3751 47.0574 33.5978 47.4032C33.8205 47.749 34.1226 47.9433 34.4375 47.9433C34.7524 47.9433 35.0545 47.749 35.2772 47.4032C35.4999 47.0574 35.625 46.5883 35.625 46.0993V5.53191C35.625 5.04286 35.4999 4.57384 35.2772 4.22803C35.0545 3.88222 34.7524 3.68794 34.4375 3.68794C34.1226 3.68794 33.8205 3.88222 33.5978 4.22803C33.3751 4.57384 33.25 5.04286 33.25 5.53191ZM30.875 10.5106C25.308 14.9546 18.5036 17.3038 11.875 18.0082V33.6193C12.3025 33.6562 12.7276 33.7004 13.1504 33.7521C19.2494 34.4491 25.2463 36.4959 30.875 41.1021V10.5106ZM9.5 33.4312V18.2C7.92347 18.2896 6.34639 18.3535 4.769 18.3918C4.13433 18.4033 3.52794 18.8012 3.08025 19.4999C2.63255 20.1985 2.37931 21.1421 2.375 22.1277V29.5035C2.375 31.5319 3.439 33.1989 4.76425 33.2247C6.34346 33.2531 7.92226 33.3219 9.5 33.4312ZM7.93962 37.027L11.761 48.2272L11.7847 48.3157H13.0863L13.0815 48.2641L12.0294 37.3257C10.667 37.198 9.30364 37.0972 7.93962 37.0233V37.027Z" fill="black"/>
</svg>
