<svg width="40" height="49" viewBox="0 0 40 49" fill="none" xmlns="http://www.w3.org/2000/svg">
<path fill-rule="evenodd" clip-rule="evenodd" d="M12.62 4.22C12.62 3.46253 13.1635 3 13.655 3H25.865C26.3565 3 26.9 3.46253 26.9 4.22V8.66C26.9 9.41747 26.3565 9.88 25.865 9.88H13.655C13.1635 9.88 12.62 9.41747 12.62 8.66V4.22ZM13.655 1C11.8987 1 10.62 2.52533 10.62 4.22V6.18H6.44C5.00319 6.18 3.62155 6.74002 2.59998 7.74268C1.57777 8.74596 1 10.1107 1 11.5378V42.0422C1 43.4693 1.57777 44.834 2.59998 45.8373C3.62155 46.84 5.00319 47.4 6.44 47.4H33.08C34.5168 47.4 35.8984 46.84 36.92 45.8373C37.9422 44.834 38.52 43.4693 38.52 42.0422V11.5378C38.52 10.1107 37.9422 8.74596 36.92 7.74268C35.8984 6.74002 34.5168 6.18 33.08 6.18H28.9V4.22C28.9 2.52533 27.6213 1 25.865 1H13.655ZM28.9 8.18V8.66C28.9 10.3547 27.6213 11.88 25.865 11.88H13.655C11.8987 11.88 10.62 10.3547 10.62 8.66V8.18H6.44C5.52169 8.18 4.64466 8.53822 4.00091 9.17005C3.3578 9.80125 3 10.6533 3 11.5378V42.0422C3 42.9267 3.3578 43.7787 4.00091 44.41C4.64466 45.0418 5.52169 45.4 6.44 45.4H33.08C33.9983 45.4 34.8753 45.0418 35.5191 44.41C36.1622 43.7787 36.52 42.9267 36.52 42.0422V11.5378C36.52 10.6533 36.1622 9.80125 35.5191 9.17005C34.8753 8.53822 33.9983 8.18 33.08 8.18H28.9Z" fill="black"/>
<path d="M10.62 6.18V7.18C11.1723 7.18 11.62 6.73228 11.62 6.18H10.62ZM2.59998 7.74268L1.89951 7.029L2.59998 7.74268ZM2.59998 45.8373L3.30045 45.1236H3.30045L2.59998 45.8373ZM36.92 45.8373L37.6205 46.551H37.6205L36.92 45.8373ZM36.92 7.74268L37.6205 7.029L37.6205 7.029L36.92 7.74268ZM28.9 6.18H27.9C27.9 6.73228 28.3477 7.18 28.9 7.18V6.18ZM28.9 8.18V7.18C28.3477 7.18 27.9 7.62772 27.9 8.18H28.9ZM10.62 8.18H11.62C11.62 7.62772 11.1723 7.18 10.62 7.18V8.18ZM4.00091 9.17005L4.70138 9.88373L4.00091 9.17005ZM4.00091 44.41L3.30045 45.1236H3.30045L4.00091 44.41ZM35.5191 44.41L34.8186 43.6963L35.5191 44.41ZM35.5191 9.17005L34.8186 9.88373L34.8186 9.88373L35.5191 9.17005ZM13.655 2C12.5521 2 11.62 2.97131 11.62 4.22H13.62C13.62 4.08989 13.6628 4.03108 13.6825 4.01015C13.695 3.99685 13.7039 3.99259 13.7036 3.9927C13.7033 3.99285 13.6995 3.99455 13.6919 3.99629C13.6843 3.99803 13.6719 4 13.655 4V2ZM25.865 2H13.655V4H25.865V2ZM27.9 4.22C27.9 2.97131 26.9679 2 25.865 2V4C25.8481 4 25.8357 3.99803 25.8281 3.99629C25.8205 3.99455 25.8167 3.99285 25.8164 3.9927C25.8161 3.99259 25.825 3.99685 25.8375 4.01015C25.8572 4.03108 25.9 4.08989 25.9 4.22H27.9ZM27.9 8.66V4.22H25.9V8.66H27.9ZM25.865 10.88C26.9679 10.88 27.9 9.90869 27.9 8.66H25.9C25.9 8.79011 25.8572 8.84892 25.8375 8.86985C25.825 8.88315 25.8161 8.88741 25.8164 8.8873C25.8167 8.88715 25.8205 8.88545 25.8281 8.88371C25.8357 8.88197 25.8481 8.88 25.865 8.88V10.88ZM13.655 10.88H25.865V8.88H13.655V10.88ZM11.62 8.66C11.62 9.90868 12.5521 10.88 13.655 10.88V8.88C13.6719 8.88 13.6843 8.88197 13.6919 8.88371C13.6995 8.88545 13.7033 8.88715 13.7036 8.8873C13.7039 8.88741 13.695 8.88315 13.6825 8.86985C13.6628 8.84892 13.62 8.79011 13.62 8.66H11.62ZM11.62 4.22V8.66H13.62V4.22H11.62ZM11.62 4.22C11.62 2.98573 12.5386 2 13.655 2V0C11.2588 0 9.62 2.06492 9.62 4.22H11.62ZM11.62 6.18V4.22H9.62V6.18H11.62ZM6.44 7.18H10.62V5.18H6.44V7.18ZM3.30045 8.45636C4.13309 7.63914 5.26241 7.18 6.44 7.18V5.18C4.74397 5.18 3.11002 5.84091 1.89951 7.029L3.30045 8.45636ZM2 11.5378C2 10.3821 2.46776 9.27363 3.30045 8.45636L1.89951 7.029C0.687782 8.21828 0 9.83937 0 11.5378H2ZM2 42.0422V11.5378H0V42.0422H2ZM3.30045 45.1236C2.46776 44.3064 2 43.1979 2 42.0422H0C0 43.7406 0.687782 45.3617 1.89951 46.551L3.30045 45.1236ZM6.44 46.4C5.26241 46.4 4.13309 45.9409 3.30045 45.1236L1.89951 46.551C3.11002 47.7391 4.74397 48.4 6.44 48.4V46.4ZM33.08 46.4H6.44V48.4H33.08V46.4ZM36.2196 45.1236C35.3869 45.9409 34.2576 46.4 33.08 46.4V48.4C34.776 48.4 36.41 47.7391 37.6205 46.551L36.2196 45.1236ZM37.52 42.0422C37.52 43.1979 37.0522 44.3064 36.2196 45.1236L37.6205 46.551C38.8322 45.3617 39.52 43.7406 39.52 42.0422H37.52ZM37.52 11.5378V42.0422H39.52V11.5378H37.52ZM36.2196 8.45636C37.0522 9.27363 37.52 10.3821 37.52 11.5378H39.52C39.52 9.83936 38.8322 8.21828 37.6205 7.029L36.2196 8.45636ZM33.08 7.18C34.2576 7.18 35.3869 7.63914 36.2196 8.45636L37.6205 7.029C36.41 5.84091 34.776 5.18 33.08 5.18V7.18ZM28.9 7.18H33.08V5.18H28.9V7.18ZM27.9 4.22V6.18H29.9V4.22H27.9ZM25.865 2C26.9814 2 27.9 2.98573 27.9 4.22H29.9C29.9 2.06492 28.2612 0 25.865 0V2ZM13.655 2H25.865V0H13.655V2ZM27.9 8.18V8.66H29.9V8.18H27.9ZM27.9 8.66C27.9 9.89427 26.9814 10.88 25.865 10.88V12.88C28.2612 12.88 29.9 10.8151 29.9 8.66H27.9ZM25.865 10.88H13.655V12.88H25.865V10.88ZM13.655 10.88C12.5386 10.88 11.62 9.89427 11.62 8.66H9.62C9.62 10.8151 11.2588 12.88 13.655 12.88V10.88ZM11.62 8.66V8.18H9.62V8.66H11.62ZM10.62 7.18H6.44V9.18H10.62V7.18ZM6.44 7.18C5.26239 7.18 4.13307 7.63915 3.30045 8.45636L4.70138 9.88373C5.15625 9.43728 5.78098 9.18 6.44 9.18V7.18ZM3.30045 8.45636C2.46775 9.27364 2 10.3821 2 11.5378H4C4 10.9246 4.24785 10.3289 4.70138 9.88373L3.30045 8.45636ZM2 11.5378V42.0422H4V11.5378H2ZM2 42.0422C2 43.1979 2.46775 44.3064 3.30045 45.1236L4.70138 43.6963C4.24785 43.2511 4 42.6554 4 42.0422H2ZM3.30045 45.1236C4.13307 45.9408 5.26239 46.4 6.44 46.4V44.4C5.78098 44.4 5.15625 44.1427 4.70138 43.6963L3.30045 45.1236ZM6.44 46.4H33.08V44.4H6.44V46.4ZM33.08 46.4C34.2576 46.4 35.3869 45.9408 36.2196 45.1236L34.8186 43.6963C34.3637 44.1427 33.739 44.4 33.08 44.4V46.4ZM36.2196 45.1236C37.0522 44.3064 37.52 43.1979 37.52 42.0422H35.52C35.52 42.6554 35.2722 43.2511 34.8186 43.6963L36.2196 45.1236ZM37.52 42.0422V11.5378H35.52V42.0422H37.52ZM37.52 11.5378C37.52 10.3821 37.0523 9.27364 36.2196 8.45636L34.8186 9.88373C35.2721 10.3289 35.52 10.9246 35.52 11.5378H37.52ZM36.2196 8.45636C35.3869 7.63915 34.2576 7.18 33.08 7.18V9.18C33.739 9.18 34.3637 9.43728 34.8186 9.88373L36.2196 8.45636ZM33.08 7.18H28.9V9.18H33.08V7.18Z" fill="black"/>
</svg>
